<svg xmlns="http://www.w3.org/2000/svg" xmlns:xlink="http://www.w3.org/1999/xlink" x="0px" y="0px" width="24px" height="24px" viewBox="0 0 48 48"><g transform="translate(0)"><circle cx="24" cy="25" r="22" fill="#fbfbfb"></circle><path d="M 2 25 A 21.9 21.9 0 0 0 9.4 41.5 l 1.9 -2.9 s 1.4 -0.4 1.7 -0.9 C 14 35.9 12.3 33 12.3 33 A 9.5 9.5 0 0 0 12 30.9 c -0.3 -0.6 -2 -1.5 -2 -1.5 S 8.3 26.7 8.3 25 a 2.5 2.5 0 0 1 2.4 -2.6 a 4.1 4.1 0 0 0 2.7 -1.9 S 15.5 19.9 16 19 s -0.6 -4 -0.6 -4 a 5.2 5.2 0 0 0 0 -2.5 a 4.7 4.7 0 0 0 -1.6 -1.9 a 10.4 10.4 0 0 0 -2.4 -3.6 A 22 22 0 0 0 2 25 Z" fill="#6F80D9"></path><path d="M 40.8 24.7 c 0.5 1.2 -0.9 4.2 -2.1 4.8 a 8.1 8.1 0 0 0 -3.1 2.5 c -0.4 0.7 -1 3.5 -2.5 4.1 s -4.8 3.8 -6.7 3.3 s -1.8 -4.8 -0.6 -6.8 c 0.7 -1.2 -0.1 -3.7 -0.2 -4.6 S 23 25.5 23 24.7 c 0 -1.4 3 -5 3 -5 a 10.7 10.7 0 0 1 3.2 -0.6 a 11.3 11.3 0 0 1 2.2 1.1 a 15.1 15.1 0 0 1 3.9 0.8 l 1.4 1.3 S 40.3 23.5 40.8 24.7 Z" fill="#6F80D9"></path><path d="M 32 1 a 9 9 0 0 0 -9 9 c 0 5.4 6.8 12.3 8.6 14 a 0.6 0.6 0 0 0 0.8 0 C 34.2 22.3 41 15.4 41 10 A 9 9 0 0 0 32 1 Z" fill="#B72020"></path><circle cx="32" cy="10" r="3" fill="#ffffff"></circle></g></svg>