<svg xmlns="http://www.w3.org/2000/svg" xmlns:xlink="http://www.w3.org/1999/xlink" x="0px" y="0px" width="24px" height="24px" viewBox="0 0 48 48"><g transform="translate(0, 0)"><path fill="#72C472" d="M32,17c-8.271,0-15,6.729-15,15s6.729,15,15,15s15-6.729,15-15S40.271,17,32,17z"></path>
<path fill="#FFFFFF" d="M39,33h-6v6c0,0.553-0.447,1-1,1s-1-0.447-1-1v-6h-6c-0.553,0-1-0.447-1-1s0.447-1,1-1h6v-6
	c0-0.553,0.447-1,1-1s1,0.447,1,1v6h6c0.553,0,1,0.447,1,1S39.553,33,39,33z"></path>
<polygon fill="#444444" points="24,10 2,2 10,24 14,14 "></polygon>
<path fill="#E6E6E6" d="M10,25c-0.005,0-0.011,0-0.016,0c-0.415-0.007-0.782-0.269-0.924-0.658l-8-22
	C0.927,1.977,1.018,1.567,1.293,1.293c0.273-0.275,0.683-0.366,1.049-0.232l22,8c0.39,0.142,0.651,0.509,0.658,0.924
	c0.007,0.414-0.243,0.79-0.629,0.944l-9.602,3.841l-3.841,9.602C10.776,24.752,10.408,25,10,25z M3.672,3.672l6.373,17.524
	l3.026-7.567c0.102-0.255,0.303-0.456,0.558-0.558l7.567-3.026L3.672,3.672z"></path></g></svg>