<svg xmlns="http://www.w3.org/2000/svg" xmlns:xlink="http://www.w3.org/1999/xlink" x="0px" y="0px" width="24px" height="24px" viewBox="0 0 48 48"><g transform="translate(0)"><path fill="#e6e6e6" d="M 1 43 c 0 1.1 0.9 2 2 2 h 42 c 1.1 0 2 -0.9 2 -2 V 11 H 1 V 43 z"></path>
<path fill="#b3b3b3" d="M 45 3 H 3 C 1.9 3 1 3.9 1 5 v 6 h 46 V 5 C 47 3.9 46.1 3 45 3 z"></path>
<path fill="#e6e6e6" d="M 10 8 H 6 C 5.4 8 5 7.6 5 7 s 0.4 -1 1 -1 h 4 c 0.6 0 1 0.4 1 1 S 10.6 8 10 8 z"></path>
<circle fill="#72c472" cx="24" cy="28" r="10"></circle>
<path fill="#ffffff" d="M 28 27 h -3 v -3 c 0 -0.6 -0.4 -1 -1 -1 s -1 0.4 -1 1 v 3 h -3 c -0.6 0 -1 0.4 -1 1 s 0.4 1 1 1 h 3 v 3 c 0 0.6 0.4 1 1 1 s 1 -0.4 1 -1 v -3 h 3 c 0.6 0 1 -0.4 1 -1 S 28.6 27 28 27 z"></path></g></svg>