<svg xmlns="http://www.w3.org/2000/svg" xmlns:xlink="http://www.w3.org/1999/xlink" x="0px" y="0px" width="48px" height="48px" viewBox="0 0 48 48"><g transform="translate(0, 0)"><rect x="5" y="1" width="38" height="46" rx="2" fill="#F1F1F1"></rect><path d="M14,13H33.906a1,1,0,0,1,0,2H14a1,1,0,0,1,0-2Zm0,10H33.906a1,1,0,0,1,0,2H14a1,1,0,0,1,0-2Zm8,12H14a1,1,0,0,1,0-2h8a1,1,0,0,1,0,2Z" fill="#616161"></path><path d="M46.6,35.2l-8-6a1,1,0,0,0-1.2,0l-8,6a1,1,0,0,0-.4.8V46a1,1,0,0,0,1,1H46a1,1,0,0,0,1-1V36A1,1,0,0,0,46.6,35.2Z" fill="#47b0ea"></path><rect x="36" y="41" width="4" height="6" fill="#223e49"></rect></g></svg>