<svg xmlns="http://www.w3.org/2000/svg" xmlns:xlink="http://www.w3.org/1999/xlink" x="0px" y="0px" width="24px"
    height="24px" viewBox="0 0 24 24">
    <g transform="translate(0)">
        <rect x="-2.1" y="-10" width="15.5" height="2" transform="matrix(0.5,0,0,0.5,8.8,12.1) rotate(-57.9)"
            fill="#b7e3fc"></rect>
        <rect x="8.6" y="-45.5" width="2" height="19.5" transform="matrix(0.5,0,0,0.5,28.9,17.3) rotate(-64.8)"
            fill="#b7e3fc"></rect>
        <rect x="-4.1" y="-11.6" width="23.8" height="2" transform="matrix(0.5,0,0,0.5,16.3,20.1) rotate(-43.9)"
            fill="#b7e3fc"></rect>
        <rect x="26.4" y="-71.2" width="20.3" height="2" transform="matrix(0.5,0,0,0.5,51.6,37.9) rotate(-81.7)"
            fill="#b7e3fc"></rect>
        <rect x="-5.5" y="4.9" width="28.9" height="2" transform="matrix(0.5,0,0,0.5,7.4,8.5) rotate(-12.5)"
            fill="#b7e3fc"></rect>
        <path transform="matrix(0.5,0,0,0.5,7.1,12.6)" d="M 5.7 18.5 C 2.9 18.5 0.7 16.2 0.7 13.5 C 0.7 10.7 2.9 8.5 5.7 8.5 C 8.4 8.5 10.7 10.7 10.7 13.5 C 10.7 16.2 8.4 18.5 5.7 18.5 Z" fill="#47b0ea"></path>
        <path transform="matrix(0.5,0,0,0.5,2.3,8)" d="M 2.3 13.7 C -0.5 13.7 -2.7 11.5 -2.7 8.7 C -2.7 6 -0.5 3.7 2.3 3.7 C 5.1 3.7 7.3 6 7.3 8.7 C 7.3 11.5 5.1 13.7 2.3 13.7 Z" fill="#47b0ea"></path>
        <path transform="matrix(0.5,0,0,0.5,15.4,5.4)" d="M 11.6 11.1 C 8.8 11.1 6.6 8.8 6.6 6.1 C 6.6 3.3 8.8 1.1 11.6 1.1 C 14.4 1.1 16.6 3.3 16.6 6.1 C 16.6 8.8 14.4 11 11.6 11.1 Z" fill="#47b0ea"></path>
        <path transform="matrix(0.5,0,0,0.5,6.7,1.8)" d="M 5.4 6.3 C 3.2 6.3 1.4 4.6 1.4 2.3 C 1.4 0.1 3.2 -1.7 5.4 -1.7 C 7.6 -1.7 9.4 0.1 9.4 2.3 C 9.4 4.6 7.6 6.3 5.4 6.3 Z" fill="#47b0ea"></path>
        <path transform="matrix(0.5,0,0,0.5,14,14.2)" d="M 10.6 19.1 C 8.4 19.1 6.6 17.4 6.6 15.1 C 6.6 12.9 8.4 11.1 10.6 11.1 C 12.8 11.1 14.6 12.9 14.6 15.1 C 14.6 17.4 12.8 19.1 10.6 19.1 Z" fill="#47b0ea"></path>
    </g>
</svg>