<svg xmlns="http://www.w3.org/2000/svg" xmlns:xlink="http://www.w3.org/1999/xlink" x="0px" y="0px" width="16px" height="16px" viewBox="0 0 16 16"><g transform="translate(0, 0)"><path d="M15,12H12a1,1,0,0,1,0-2h3a1,1,0,0,1,0,2Z" fill="#b72020" data-color="color-2"></path><path d="M15,16H12a1,1,0,0,1,0-2h3a1,1,0,0,1,0,2Z" fill="#b72020" data-color="color-2"></path><path d="M14.658.247a1,1,0,0,0-1.411.1h0L7.394,7.04A1.965,1.965,0,0,0,7,7L6.97,7a7.222,7.222,0,0,0-.725.04c-.045,0-.088.015-.133.021-.209.026-.417.06-.62.105l-.073.019q-.336.078-.66.187l-.017.007a7.18,7.18,0,0,0-.674.271h0A7.031,7.031,0,0,0,1.75,9.386c-.012.013-.024.025-.035.038a7.048,7.048,0,0,0-.573.756c-.009.013-.016.027-.024.04a6.866,6.866,0,0,0-.416.746c-.024.049-.049.1-.072.148a6.9,6.9,0,0,0-.326.85c-.007.023-.011.048-.018.071a6.828,6.828,0,0,0-.183.812c-.012.075-.024.15-.034.226A6.914,6.914,0,0,0,0,14v1a1,1,0,0,0,1,1H8.128a1,1,0,0,0,.676-.263.976.976,0,0,0,.161-.189,1,1,0,0,0,.079-.949A6.5,6.5,0,0,1,8.815,10,3.6,3.6,0,0,0,9,9a1.974,1.974,0,0,0-.112-.631l5.865-6.711A1,1,0,0,0,14.658.247ZM2.091,13.105c.016-.092.039-.181.06-.271a5.127,5.127,0,0,1,.184-.591c.035-.091.065-.184.1-.272a5,5,0,0,1,.373-.687c.074-.113.161-.216.244-.322s.165-.21.255-.309c.109-.119.224-.235.344-.344.069-.062.142-.118.213-.176A5.07,5.07,0,0,1,4.88,9.489l0,0A3.977,3.977,0,0,0,6.6,10.745,8.6,8.6,0,0,0,6.5,12a8.464,8.464,0,0,0,.238,2H2v-.006A4.907,4.907,0,0,1,2.091,13.105Z" fill="#b72020"></path></g></svg>