<svg xmlns="http://www.w3.org/2000/svg" xmlns:xlink="http://www.w3.org/1999/xlink" x="0px" y="0px" width="24px" height="24px" viewBox="0 0 48 48"><g transform="translate(0)"><path d="M 2 41 a 2 2 0 0 0 2 2 H 43 a 3 3 0 0 0 3 -3 V 15 H 2 Z" fill="#fbfbfb"></path>
    <path d="M 44 5 H 4 A 2 2 0 0 0 2 7 v 8 H 46 V 7 A 2 2 0 0 0 44 5 Z" fill="#6F80D9"></path>
    <path d="M 10 10 V 2 a 1 1 0 0 1 1 -1 h 2 a 1 1 0 0 1 1 1 v 8 a 1 1 0 0 1 -1 1 H 11 A 1 1 0 0 1 10 10 Z" fill="#616161"></path>
    <path d="M 34 10 V 2 a 1 1 0 0 1 1 -1 h 2 a 1 1 0 0 1 1 1 v 8 a 1 1 0 0 1 -1 1 H 35 A 1 1 0 0 1 34 10 Z" fill="#616161"></path>
    <path d="M 37 47 A 10 10 0 1 0 27 37 A 10 10 0 0 0 37 47 Z" fill="#B72020"></path>
    <path d="M 36 32 a 1 1 0 0 1 2 0 v 4 h 4 a 1 1 0 0 1 0 2 H 37 a 1 1 0 0 1 -1 -1 Z" fill="#ffffff"></path></g></svg>