<svg xmlns="http://www.w3.org/2000/svg" xmlns:xlink="http://www.w3.org/1999/xlink" x="0px" y="0px" width="32px" height="32px" viewBox="0 0 32 32"><g transform="translate(0, 0)"><path d="M29,4H24V1a1,1,0,0,0-2,0V4H10V1A1,1,0,0,0,8,1V4H3A2,2,0,0,0,1,6V29a2,2,0,0,0,2,2H29a2,2,0,0,0,2-2V6A2,2,0,0,0,29,4ZM28,29H4a1,1,0,0,1-1-1V10A1,1,0,0,1,4,9H28a1,1,0,0,1,1,1V28A1,1,0,0,1,28,29Z" fill="#888888"></path>
<path data-color="color-2" d="M14,21.586l-4-4L8.586,19l4.707,4.707a1,1,0,0,0,1.414,0L23.414,15,22,13.586Z" fill="#888888"></path></g></svg>