<svg xmlns="http://www.w3.org/2000/svg" xmlns:xlink="http://www.w3.org/1999/xlink" x="0px" y="0px" width="24px" height="24px" viewBox="0 0 48 48"><g transform="translate(0)"><path fill="#fbfbfb" d="M 1 45 c 0 1.1 0.9 2 2 2 h 42 c 1.1 0 2 -0.9 2 -2 V 15 H 1 V 45 z"></path>
<path fill="#6F80D9" d="M 45 5 H 3 C 1.9 5 1 5.9 1 7 v 8 h 46 V 7 C 47 5.9 46.1 5 45 5 z"></path>
<path fill="#616161" d="M 10 10 V 2 c 0 -0.6 0.4 -1 1 -1 h 2 c 0.6 0 1 0.4 1 1 v 8 c 0 0.6 -0.4 1 -1 1 h -2 C 10.4 11 10 10.6 10 10 z"></path>
<path fill="#616161" d="M 34 10 V 2 c 0 -0.6 0.4 -1 1 -1 h 2 c 0.6 0 1 0.4 1 1 v 8 c 0 0.6 -0.4 1 -1 1 h -2 C 34.4 11 34 10.6 34 10 z"></path>
<path fill="#616161" d="M 40 34 h -3 v -6 h 3 c 0.6 0 1 -0.4 1 -1 s -0.4 -1 -1 -1 h -3 v -5 c 0 -0.6 -0.4 -1 -1 -1 s -1 0.4 -1 1 v 5 h -6 v -5 c 0 -0.6 -0.4 -1 -1 -1 s -1 0.4 -1 1 v 5 h -6 v -5 c 0 -0.6 -0.4 -1 -1 -1 s -1 0.4 -1 1 v 5 h -6 v -5 c 0 -0.6 -0.4 -1 -1 -1 s -1 0.4 -1 1 v 5 H 8 c -0.6 0 -1 0.4 -1 1 s 0.4 1 1 1 h 3 v 6 H 8 c -0.6 0 -1 0.4 -1 1 s 0.4 1 1 1 h 3 v 5 c 0 0.6 0.4 1 1 1 s 1 -0.4 1 -1 v -5 h 6 v 5 c 0 0.6 0.4 1 1 1 s 1 -0.4 1 -1 v -5 h 6 v 5 c 0 0.6 0.4 1 1 1 s 1 -0.4 1 -1 v -5 h 6 v 5 c 0 0.6 0.4 1 1 1 s 1 -0.4 1 -1 v -5 h 3 c 0.6 0 1 -0.4 1 -1 S 40.6 34 40 34 z M 13 34 v -6 h 6 v 6 H 13 z M 21 34 v -6 h 6 v 6 H 21 z M 29 34 v -6 h 6 v 6 H 29 z"></path>
</g>
</svg>