<svg xmlns="http://www.w3.org/2000/svg" xmlns:xlink="http://www.w3.org/1999/xlink" x="0px" y="0px" width="16px" height="16px" viewBox="0 0 16 16"><g transform="translate(0, 0)"><path d="M12.649,8.9,13.862,7.63a3.874,3.874,0,0,0,.6-4.682l1.241-1.241A1,1,0,1,0,14.293.293L13.052,1.534a3.874,3.874,0,0,0-4.682.6L7.129,3.379Z" fill="#1976d2" data-color="color-2"></path><path d="M9.53,9.53,8.47,8.47,6.6,10.345l-.94-.94L7.53,7.53,6.47,6.47,4.6,8.345,3.351,7.1,2.138,8.37a3.874,3.874,0,0,0-.6,4.682L.293,14.293a1,1,0,1,0,1.414,1.414l1.241-1.241a3.874,3.874,0,0,0,4.682-.6l1.241-1.241L7.655,11.405Z" fill="#1976d2"></path></g></svg>