<svg xmlns="http://www.w3.org/2000/svg" xmlns:xlink="http://www.w3.org/1999/xlink" x="0px" y="0px" width="16px" height="16px" viewBox="0 0 16 16"><g transform="translate(0, 0)"><path fill="#1976d2" d="M15.7,11.3L13.4,9l1.3-1.3c0.6-0.6,0-1.6-0.6-1.7L12,5.7C11.8,2.6,9.2,0,6,0C2.7,0,0,2.7,0,6
	c0,3.2,2.6,5.8,5.7,6L6,14.1c0.1,0.6,1,1.3,1.7,0.6L9,13.4l2.3,2.3c0.5,0.5,1.1,0.3,1.4,0l3-3C16.1,12.3,16.1,11.7,15.7,11.3z M2,6
	c0-2.2,1.8-4,4-4c2,0,3.7,1.5,3.9,3.5L6.1,5C5.3,4.9,4.9,5.4,5,6.1l0.5,3.8C3.5,9.7,2,8,2,6z"></path></g></svg>