<svg xmlns="http://www.w3.org/2000/svg" xmlns:xlink="http://www.w3.org/1999/xlink" x="0px" y="0px" width="16px" height="16px" viewBox="0 0 16 16"><g transform="translate(0, 0)"><path fill="#1976d2" d="M15,7c-0.6,0-1,0.4-1,1v6H2V2h6c0.6,0,1-0.4,1-1S8.6,0,8,0H1C0.4,0,0,0.4,0,1v14c0,0.6,0.4,1,1,1h14
	c0.6,0,1-0.4,1-1V8C16,7.4,15.6,7,15,7z"></path>
<path data-color="color-2" fill="#1976d2" d="M14.3,0.3l-8,8c-0.4,0.4-0.4,1,0,1.4C6.5,9.9,6.7,10,7,10s0.5-0.1,0.7-0.3l8-8
	c0.4-0.4,0.4-1,0-1.4S14.7-0.1,14.3,0.3z"></path></g></svg>